<svg width="30" height="27" viewBox="0 0 30 27" fill="none" xmlns="http://www.w3.org/2000/svg">
<path d="M19.6801 22.6043C19.7263 22.612 19.7723 22.6158 19.8177 22.6158C20.2168 22.6158 20.569 22.3275 20.6368 21.9209L21.4682 16.9326C21.5437 16.4797 21.2377 16.0513 20.7848 15.9759C20.3319 15.9001 19.9035 16.2063 19.8281 16.6592L18.9967 21.6475C18.9212 22.1005 19.2271 22.5288 19.6801 22.6043Z" fill="#2F69B2" stroke="white" stroke-width="0.6"/>
<path d="M9.79583 21.9213C9.86361 22.328 10.2158 22.6162 10.6149 22.6162C10.6603 22.6162 10.7063 22.6125 10.7526 22.6047C11.2055 22.5292 11.5115 22.1009 11.436 21.648L10.6046 16.6597C10.5291 16.2067 10.1008 15.9008 9.64784 15.9763C9.19491 16.0518 8.88896 16.4801 8.96445 16.933L9.79583 21.9213Z" fill="#2F69B2" stroke="white" stroke-width="0.6"/>
<path d="M28.5464 9.31379H25.6204L19.219 1.31204C18.9323 0.953599 18.4091 0.895347 18.0505 1.18223C17.692 1.46906 17.6338 1.99222 17.9207 2.35076L23.4911 9.31379H6.88667L12.4571 2.35076C12.744 1.99222 12.6858 1.469 12.3273 1.18223C11.9687 0.895347 11.4456 0.953544 11.1588 1.31204L4.75734 9.31379H1.83138C1.37224 9.31379 1 9.68603 1 10.1452V13.4707C1 13.9298 1.37224 14.3021 1.83138 14.3021H2.86706L6.02032 25.3384C6.12225 25.6954 6.44848 25.9414 6.81966 25.9414H23.5581C23.9293 25.9414 24.2555 25.6954 24.3575 25.3384L27.5107 14.3021H28.5464C29.0055 14.3021 29.3778 13.9298 29.3778 13.4707V10.1452C29.3778 9.68603 29.0055 9.31379 28.5464 9.31379ZM22.931 24.2786H7.44675L4.59633 14.3021H25.7815L22.931 24.2786ZM27.715 12.6393C24.867 12.6393 5.36087 12.6393 2.66276 12.6393V10.9766H27.715V12.6393Z" fill="#2F69B2" stroke="white" stroke-width="0.6"/>
<path d="M15.1892 22.6159C15.6483 22.6159 16.0205 22.2437 16.0205 21.7845V16.7962C16.0205 16.3371 15.6483 15.9648 15.1892 15.9648C14.73 15.9648 14.3578 16.3371 14.3578 16.7962V21.7845C14.3578 22.2437 14.73 22.6159 15.1892 22.6159Z" fill="#2F69B2" stroke="white" stroke-width="0.6"/>
</svg>
